<svg width="100" height="100" viewBox="0 0 100 100" xmlns="http://www.w3.org/2000/svg">
  <!-- Tło koła -->
  <circle cx="50" cy="50" r="45" fill="#f0f4f8" stroke="#4A90E2" stroke-width="2"/>
  
  <!-- Mózg -->
  <path d="M 50 25 
           C 35 25, 25 35, 25 50
           C 25 60, 30 65, 35 68
           C 38 70, 42 70, 45 68
           C 47 70, 50 72, 50 72
           C 50 72, 53 70, 55 68
           C 58 70, 62 70, 65 68
           C 70 65, 75 60, 75 50
           C 75 35, 65 25, 50 25"
        fill="#6366F1" opacity="0.9"/>
  
  <!-- Połączenia neuronowe -->
  <circle cx="35" cy="40" r="3" fill="#FFFFFF"/>
  <circle cx="65" cy="40" r="3" fill="#FFFFFF"/>
  <circle cx="50" cy="35" r="3" fill="#FFFFFF"/>
  <circle cx="40" cy="55" r="3" fill="#FFFFFF"/>
  <circle cx="60" cy="55" r="3" fill="#FFFFFF"/>
  <circle cx="50" cy="50" r="4" fill="#FFFFFF"/>
  
  <!-- Linie połączeń -->
  <path d="M 35 40 L 50 50 M 65 40 L 50 50 M 50 35 L 50 50 M 40 55 L 50 50 M 60 55 L 50 50"
        stroke="#FFFFFF" stroke-width="1.5" opacity="0.6"/>
  
  <!-- Dodatkowe węzły -->
  <circle cx="30" cy="50" r="2" fill="#A855F7"/>
  <circle cx="70" cy="50" r="2" fill="#A855F7"/>
  <circle cx="50" cy="65" r="2" fill="#A855F7"/>
</svg>