<svg width="100" height="120" viewBox="0 0 100 120" xmlns="http://www.w3.org/2000/svg">
  <!-- Cień -->
  <ellipse cx="50" cy="115" rx="25" ry="5" fill="#00000020"/>
  
  <!-- Stopy -->
  <ellipse cx="35" cy="110" rx="12" ry="6" fill="#FFA500"/>
  <ellipse cx="65" cy="110" rx="12" ry="6" fill="#FFA500"/>
  
  <!-- Ciało (czarne) -->
  <ellipse cx="50" cy="75" rx="35" ry="40" fill="#2C3E50"/>
  
  <!-- Brzuch (biały) -->
  <ellipse cx="50" cy="75" rx="25" ry="32" fill="#FFFFFF"/>
  
  <!-- Głowa -->
  <ellipse cx="50" cy="35" rx="28" ry="30" fill="#2C3E50"/>
  
  <!-- Twarz (biała) -->
  <ellipse cx="50" cy="38" rx="20" ry="22" fill="#FFFFFF"/>
  
  <!-- Skrzydła -->
  <ellipse cx="20" cy="70" rx="12" ry="25" fill="#2C3E50" transform="rotate(-20 20 70)"/>
  <ellipse cx="80" cy="70" rx="12" ry="25" fill="#2C3E50" transform="rotate(20 80 70)"/>
  
  <!-- Dziób -->
  <path d="M 50 45 L 45 50 L 50 52 L 55 50 Z" fill="#FFA500"/>
  
  <!-- Oczy -->
  <circle cx="42" cy="35" r="5" fill="#2C3E50"/>
  <circle cx="58" cy="35" r="5" fill="#2C3E50"/>
  <circle cx="43" cy="36" r="2" fill="#FFFFFF"/>
  <circle cx="59" cy="36" r="2" fill="#FFFFFF"/>
  
  <!-- Opcjonalnie: mały akcent Linux -->
  <text x="50" y="90" font-family="Arial, sans-serif" font-size="8" fill="#34495E" text-anchor="middle" font-weight="bold">LINUX</text>
</svg>