<svg xmlns="http://www.w3.org/2000/svg" width="24" height="24" viewBox="0 0 24 24" fill="currentColor">
    <path d="M12,2C6.47,2 2,6.5 2,12A10,10 0 0,0 12,22A10,10 0 0,0 22,12C22,6.5 17.5,2 12,2M12,4A8,8 0 0,1 20,12C20,13.42 19.5,14.73 18.7,15.86C18.7,12.95 16.05,10.6 13.14,10.6C10.23,10.6 7.3,12.95 7.3,15.86C6.5,14.73 6,13.42 6,12A8,8 0 0,1 12,4M8.16,17.25C8.5,16.5 9.16,16 10,16H14C14.84,16 15.5,16.5 15.84,17.25C15,18.5 13.54,19.5 12,19.5C10.46,19.5 9,18.5 8.16,17.25M11.5,8A1.5,1.5 0 0,1 10,6.5A1.5,1.5 0 0,1 11.5,5A1.5,1.5 0 0,1 13,6.5A1.5,1.5 0 0,1 11.5,8M16.5,8A1.5,1.5 0 0,1 15,6.5A1.5,1.5 0 0,1 16.5,5A1.5,1.5 0 0,1 18,6.5A1.5,1.5 0 0,1 16.5,8Z" />
</svg>